<svg width="35" height="35" viewBox="0 0 35 35" fill="none" xmlns="http://www.w3.org/2000/svg">
<path fill-rule="evenodd" clip-rule="evenodd" d="M25.8497 26.4739C25.3561 26.9326 24.8189 27.3574 24.2391 27.7422C22.2441 29.0662 20.0079 29.7423 17.7785 29.8207C18.5895 29.9387 19.4622 30 20.399 30C23.2012 30 25.3722 29.3566 26.951 28.1517C28.5394 26.9395 29.4184 25.2425 29.7868 23.3547C30.0879 21.812 30.0546 20.1151 29.7834 18.3768C29.5594 21.0152 28.5024 23.5646 26.6973 25.6051C26.4523 25.9248 26.1704 26.2151 25.8497 26.4739Z" fill="#5A4B24"/>
<circle cx="17.3271" cy="17.3271" r="12.5" transform="rotate(-33.5702 17.3271 17.3271)" fill="#42738E"/>
<rect x="8.7198" y="23.328" width="5.30954" height="0.938535" transform="rotate(10.7777 8.7198 23.328)" fill="white"/>
<rect x="12.4421" y="21.5589" width="5.30954" height="1.09413" transform="rotate(100.778 12.4421 21.5589)" fill="white"/>
<rect x="17.3246" y="20.0178" width="5.30954" height="0.938535" transform="rotate(10.7777 17.3246 20.0178)" fill="white"/>
<rect x="21.0469" y="18.2487" width="5.30954" height="1.09413" transform="rotate(100.778 21.0469 18.2487)" fill="white"/>
<path d="M14.5321 27.5832C15.9663 27.0315 19.3057 26.0955 21.1902 26.7651" stroke="white"/>
</svg>
