<svg width="93" height="94" viewBox="0 0 93 94" fill="none" xmlns="http://www.w3.org/2000/svg">
<path fill-rule="evenodd" clip-rule="evenodd" d="M79.719 48.2675C79.2908 58.5858 74.093 68.5613 64.8303 74.7085C58.9361 78.6202 52.253 80.4129 45.6789 80.2684C48.3731 80.7911 51.3361 81.0654 54.5815 81.0654C62.1092 81.0654 67.9814 79.337 72.2689 76.0647C76.5854 72.7703 78.9662 68.1625 79.9616 63.0622C80.8542 58.4887 80.6567 53.4228 79.719 48.2675Z" fill="#5A4B24"/>
<circle cx="46.383" cy="46.9117" r="33.3611" transform="rotate(-33.5702 46.383 46.9117)" fill="#42738E"/>
<rect x="23.4111" y="62.9275" width="14.1706" height="2.50485" transform="rotate(10.7777 23.4111 62.9275)" fill="white"/>
<rect x="33.3455" y="58.2059" width="14.1706" height="2.92012" transform="rotate(100.778 33.3455 58.2059)" fill="white"/>
<rect x="46.3763" y="54.0929" width="14.1706" height="2.50485" transform="rotate(10.7777 46.3763 54.0929)" fill="white"/>
<rect x="56.3108" y="49.3714" width="14.1706" height="2.92012" transform="rotate(100.778 56.3108 49.3714)" fill="white"/>
<path d="M38.9235 74.2842C42.7511 72.8118 51.6636 70.3137 56.6933 72.1007" stroke="white"/>
</svg>
