<svg width="174" height="213" viewBox="0 0 174 213" fill="none" xmlns="http://www.w3.org/2000/svg">
<rect x="47.3023" y="29.9384" width="6.0797" height="23.9545" transform="rotate(135 47.3023 29.9384)" fill="#623319"/>
<rect x="49.299" y="34.2374" width="6.0797" height="23.9545" transform="rotate(-135 49.299 34.2374)" fill="#623319"/>
<rect x="41" width="9" height="181" fill="#532B15"/>
<rect x="108" y="8" width="9" height="88" transform="rotate(90 108 8)" fill="#532B15"/>
<rect y="181" width="174" height="10" fill="#623319"/>
<rect x="160" y="186" width="22" height="10" transform="rotate(90 160 186)" fill="#623319"/>
<rect x="25" y="186" width="22" height="10" transform="rotate(90 25 186)" fill="#623319"/>
<rect x="87" y="186" width="54" height="10" fill="#4E2712"/>
<rect x="85" y="192" width="58" height="10" fill="#744227"/>
<rect x="81" y="198" width="66" height="10" fill="#4E2712"/>
<rect x="78" y="203" width="72" height="10" fill="#744227"/>
<path d="M98 7.66069C96.8 6.46411 95.5 7.16212 95 7.66069V17.009C96.2 18.8038 97.5 17.7568 98 17.009V7.66069Z" fill="#AA8E48"/>
<path d="M88 7.66069C86.8 6.46411 85.5 7.16212 85 7.66069V17.009C86.2 18.8038 87.5 17.7568 88 17.009V7.66069Z" fill="#AA8E48"/>
<path d="M93 7.66069C91.8 6.46411 90.5 7.16212 90 7.66069V17.009C91.2 18.8038 92.5 17.7568 93 17.009V7.66069Z" fill="#AA8E48"/>
<path d="M94.5 49H90V43.5V38V31V23.5V18.5V16H94.5V22V28V35V42V47V49Z" fill="#AA8E48"/>
<path d="M94.5 22C92.5 21.6 90.6667 19.1667 90 18V23C90.4 25 93.1667 25.8333 94.5 26V22Z" fill="#927B41"/>
<path d="M94.5 31C92.5 30.6 90.6667 28.1667 90 27V32C90.4 34 93.1667 34.8333 94.5 35V31Z" fill="#927B41"/>
<path d="M94.5 40C92.5 39.6 90.6667 37.1667 90 36V41C90.4 43 93.1667 43.8333 94.5 44V40Z" fill="#927B41"/>
<path d="M90 7.66069C89.2 6.46411 88.3333 7.16212 88 7.66069V17.009C88.8 18.8038 89.6667 17.7568 90 17.009V7.66069Z" fill="#927B41"/>
<path d="M95 7.66069C94.2 6.46411 93.3333 7.16212 93 7.66069V17.009C93.8 18.8038 94.6667 17.7568 95 17.009V7.66069Z" fill="#927B41"/>
<path d="M86.4351 70.5402C90.7409 64.8951 90.417 56.7348 90.417 53.0805C92.0393 50.1028 95.2839 45.9342 95.2839 53.0805C95.2839 60.2268 98.6759 67.698 100.593 70.5402C104.133 78.255 105.018 88 94.399 88C80.863 88 83.338 74.6007 86.4351 70.5402Z" stroke="#5A4B24" stroke-width="2"/>
<path d="M96.4594 46.6538C97.4385 45.9923 96.8674 45.2756 96.4594 45L88.8109 45C87.3423 45.6615 88.199 46.3782 88.8109 46.6538L96.4594 46.6538Z" fill="#AA8E48"/>
<path d="M96.4594 49.9615C97.4385 49.3 96.8674 48.5833 96.4594 48.3077L88.8109 48.3077C87.3423 48.9692 88.199 49.6859 88.8109 49.9615L96.4594 49.9615Z" fill="#AA8E48"/>
<path d="M96.4594 53.2692C97.4385 52.6077 96.8674 51.891 96.4594 51.6154L88.8109 51.6154C87.3423 52.2769 88.199 52.9936 88.8109 53.2692L96.4594 53.2692Z" fill="#AA8E48"/>
<path d="M96.4594 48.3077C97.4385 47.6462 96.8674 46.9295 96.4594 46.6539L88.8109 46.6539C87.3423 47.3154 88.199 48.0321 88.8109 48.3077L96.4594 48.3077Z" fill="#927B41"/>
<path d="M96.4594 51.6154C97.4385 50.9538 96.8674 50.2372 96.4594 49.9615L88.8109 49.9615C87.3423 50.6231 88.199 51.3397 88.8109 51.6154L96.4594 51.6154Z" fill="#927B41"/>
</svg>
